<svg width="44" height="45" viewBox="0 0 44 45" fill="none" xmlns="http://www.w3.org/2000/svg">
<path d="M39.4123 4.59993C35.2603 0.464749 29.2934 0.00262451 22 0.00262451C14.697 0.00262451 8.7205 0.469538 4.57096 4.61669C0.421419 8.76144 0 14.7284 0 22.0242C0 29.32 0.421419 35.2893 4.57096 39.4365C8.7205 43.5836 14.697 44.0026 21.9976 44.0026C29.3006 44.0026 35.2747 43.5836 39.4242 39.4365C43.5738 35.2893 43.9952 29.32 43.9952 22.0242C43.9976 14.7188 43.5714 8.74468 39.4123 4.59993Z" fill="#FE3E29"/>
<path d="M6.90307 28.039C6.88152 28.039 6.86716 28.027 6.85997 28.0199C6.85279 28.0127 6.84321 27.9959 6.848 27.9744L8.08353 21.155L7.81296 21.3777C7.42985 21.6962 6.64927 22.2756 6.40743 22.4552L5.19824 20.7552L5.215 20.7432C8.48819 18.3967 9.85301 16.3039 10.4277 14.9559L10.5043 14.7787H7.31492C7.29337 14.7787 7.279 14.7667 7.27421 14.7595C7.26703 14.7523 7.25745 14.738 7.25984 14.7164L7.50886 12.8248C7.51126 12.7985 7.5352 12.7769 7.56394 12.7769H9.26637L9.50103 11.1894C9.50582 11.1631 9.52737 11.1415 9.5561 11.1415H11.5531C11.5746 11.1415 11.589 11.1535 11.5962 11.1607C11.6033 11.1679 11.6129 11.1822 11.6081 11.2038L11.3759 12.7745H12.9706C12.9921 12.7745 13.0065 12.7865 13.0113 12.7937C13.0184 12.8009 13.028 12.8152 13.0256 12.8368L12.9203 13.8401C12.9131 13.9119 12.7215 15.6071 11.0694 17.9321L11.0143 18.0159L13.2196 20.4535C13.2363 20.4726 13.2363 20.5157 13.2148 20.5325L11.747 21.8566C11.7255 21.8638 11.7111 21.8662 11.6991 21.8662C11.6847 21.8662 11.6752 21.8614 11.668 21.8518L10.3439 20.3888L8.96707 27.9911C8.96228 28.0175 8.93834 28.0366 8.912 28.0366H6.90307V28.039Z" fill="white"/>
<path d="M25.2731 28.039C24.404 28.039 23.6282 27.4859 23.3408 26.6646C23.2427 26.382 23.2163 26.0516 23.2642 25.6805L25.1127 11.2588C25.1151 11.2325 25.1391 11.211 25.1678 11.211L38.0019 11.2086C38.0235 11.2086 38.0378 11.2205 38.045 11.2277C38.0522 11.2349 38.0618 11.2493 38.057 11.2732L37.7792 13.2295C37.7744 13.2558 37.7505 13.2773 37.7242 13.2773L27.5431 13.2797C27.3874 13.2797 27.2533 13.3971 27.2342 13.5503L25.7137 25.3524C25.6946 25.5009 25.7401 25.6494 25.8406 25.7595C25.9388 25.8696 26.0801 25.9343 26.2309 25.9343H36.7927C36.8143 25.9343 36.8287 25.9463 36.8334 25.9534C36.8382 25.9606 36.8502 25.975 36.8478 25.9965L36.582 27.9887C36.5772 28.015 36.5557 28.0366 36.527 28.0366H25.2731V28.039Z" fill="white"/>
<path d="M10.6455 28.039C10.6239 28.039 10.6096 28.027 10.6024 28.0198C10.5952 28.0126 10.5856 27.9959 10.5904 27.9743L10.9448 25.9965C10.9496 25.9702 10.9735 25.951 10.9998 25.951H14.5436L15.5469 18.4014H12.5778C12.5562 18.4014 12.5419 18.3894 12.5371 18.3823C12.5299 18.3751 12.5203 18.3607 12.5227 18.3392L12.7789 16.3614C12.7813 16.335 12.8052 16.3135 12.834 16.3135H15.827L16.5214 11.0697C16.5262 11.0433 16.5477 11.0218 16.5765 11.0218H18.6333C18.6548 11.0218 18.6692 11.0338 18.674 11.0409C18.6812 11.0481 18.6907 11.0625 18.6884 11.084L17.9964 16.3135H21.0205C21.0421 16.3135 21.0564 16.3254 21.0636 16.3326C21.0708 16.3398 21.0804 16.3542 21.078 16.3757L20.8194 18.3535C20.8146 18.3823 20.7931 18.4014 20.7643 18.4014H17.7186L16.7153 25.951H20.5895C20.6111 25.951 20.6254 25.963 20.6302 25.9702C20.6374 25.9774 20.647 25.9917 20.6446 26.0133L20.3884 27.9911C20.3836 28.0198 20.3621 28.039 20.3333 28.039H10.6455Z" fill="white"/>
<path d="M6.90307 28.039C6.88152 28.039 6.86716 28.027 6.85997 28.0199C6.85279 28.0127 6.84321 27.9959 6.848 27.9744L8.08353 21.155L7.81296 21.3777C7.42985 21.6962 6.64927 22.2756 6.40743 22.4552L5.19824 20.7552L5.215 20.7432C8.48819 18.3967 9.85301 16.3039 10.4277 14.9559L10.5043 14.7787H7.31492C7.29337 14.7787 7.279 14.7667 7.27421 14.7595C7.26703 14.7523 7.25745 14.738 7.25984 14.7164L7.50886 12.8248C7.51126 12.7985 7.5352 12.7769 7.56394 12.7769H9.26637L9.50103 11.1894C9.50582 11.1631 9.52737 11.1415 9.5561 11.1415H11.5531C11.5746 11.1415 11.589 11.1535 11.5962 11.1607C11.6033 11.1679 11.6129 11.1822 11.6081 11.2038L11.3759 12.7745H12.9706C12.9921 12.7745 13.0065 12.7865 13.0113 12.7937C13.0184 12.8009 13.028 12.8152 13.0256 12.8368L12.9203 13.8401C12.9131 13.9119 12.7215 15.6071 11.0694 17.9321L11.0143 18.0159L13.2196 20.4535C13.2363 20.4726 13.2363 20.5157 13.2148 20.5325L11.747 21.8566C11.7255 21.8638 11.7111 21.8662 11.6991 21.8662C11.6847 21.8662 11.6752 21.8614 11.668 21.8518L10.3439 20.3888L8.96707 27.9911C8.96228 28.0175 8.93834 28.0366 8.912 28.0366H6.90307V28.039Z" fill="white"/>
<path d="M25.2731 28.039C24.404 28.039 23.6282 27.4859 23.3408 26.6646C23.2427 26.382 23.2163 26.0516 23.2642 25.6805L25.1127 11.2588C25.1151 11.2325 25.1391 11.211 25.1678 11.211L38.0019 11.2086C38.0235 11.2086 38.0378 11.2205 38.045 11.2277C38.0522 11.2349 38.0618 11.2493 38.057 11.2732L37.7792 13.2295C37.7744 13.2558 37.7505 13.2773 37.7242 13.2773L27.5431 13.2797C27.3874 13.2797 27.2533 13.3971 27.2342 13.5503L25.7137 25.3524C25.6946 25.5009 25.7401 25.6494 25.8406 25.7595C25.9388 25.8696 26.0801 25.9343 26.2309 25.9343H36.7927C36.8143 25.9343 36.8287 25.9463 36.8334 25.9534C36.8382 25.9606 36.8502 25.975 36.8478 25.9965L36.582 27.9887C36.5772 28.015 36.5557 28.0366 36.527 28.0366H25.2731V28.039Z" fill="white"/>
<path d="M10.6455 28.039C10.6239 28.039 10.6096 28.027 10.6024 28.0198C10.5952 28.0126 10.5856 27.9959 10.5904 27.9743L10.9448 25.9965C10.9496 25.9702 10.9735 25.951 10.9998 25.951H14.5436L15.5469 18.4014H12.5778C12.5562 18.4014 12.5419 18.3894 12.5371 18.3823C12.5299 18.3751 12.5203 18.3607 12.5227 18.3392L12.7789 16.3614C12.7813 16.335 12.8052 16.3135 12.834 16.3135H15.827L16.5214 11.0697C16.5262 11.0433 16.5477 11.0218 16.5765 11.0218H18.6333C18.6548 11.0218 18.6692 11.0338 18.674 11.0409C18.6812 11.0481 18.6907 11.0625 18.6884 11.084L17.9964 16.3135H21.0205C21.0421 16.3135 21.0564 16.3254 21.0636 16.3326C21.0708 16.3398 21.0804 16.3542 21.078 16.3757L20.8194 18.3535C20.8146 18.3823 20.7931 18.4014 20.7643 18.4014H17.7186L16.7153 25.951H20.5895C20.6111 25.951 20.6254 25.963 20.6302 25.9702C20.6374 25.9774 20.647 25.9917 20.6446 26.0133L20.3884 27.9911C20.3836 28.0198 20.3621 28.039 20.3333 28.039H10.6455Z" fill="white"/>
<path d="M35.8637 23.729L32.0925 17.4748L30.6583 15.0971C30.6223 15.0301 30.5529 14.9894 30.4787 14.9894L28.5512 15.0085C28.4841 15.0085 28.4195 15.0516 28.3812 15.1187C28.3452 15.1833 28.3428 15.26 28.374 15.3198L30.5864 19.3089L33.2586 23.8416C33.3328 23.9924 33.4741 24.0858 33.6273 24.0882L35.6937 24.1121C35.7704 24.1121 35.8398 24.0619 35.8757 23.9805C35.9092 23.8967 35.9068 23.8033 35.8637 23.729Z" fill="white"/>
<path d="M36.5605 15.2504C36.6132 15.1857 36.6227 15.0995 36.5868 15.0277C36.5557 14.9654 36.4982 14.9295 36.4312 14.9295L34.4462 14.9511C34.3792 14.9511 34.3121 14.987 34.2666 15.0444L32.2218 17.4796L32.2194 17.4772L30.6774 19.3113L27.045 23.6285C26.9852 23.7051 26.9636 23.808 26.9923 23.8942C27.0187 23.9709 27.0738 24.014 27.1456 24.014L29.2886 24.0379C29.3604 24.0379 29.4371 23.9948 29.4897 23.9254L31.8746 20.9778L33.2921 19.3113L36.5605 15.2504Z" fill="white"/>
<path d="M10.1762 35.0032L11.3555 36.6673H10.5294L9.76916 35.512L9.01492 36.6673H8.19482L9.40401 34.9672L8.27863 33.3749H9.09273L9.81705 34.4824L10.5114 33.3749H11.3136L10.1762 35.0032Z" fill="white"/>
<path d="M12.6479 32.3094C12.6479 32.4411 12.6079 32.5469 12.5281 32.6267C12.4523 32.7025 12.3466 32.7404 12.2109 32.7404C12.0832 32.7404 11.9794 32.7025 11.8996 32.6267C11.8238 32.5469 11.7859 32.4411 11.7859 32.3094C11.7859 32.1737 11.8238 32.068 11.8996 31.9922C11.9794 31.9123 12.0832 31.8724 12.2109 31.8724C12.3466 31.8724 12.4523 31.9123 12.5281 31.9922C12.6079 32.068 12.6479 32.1737 12.6479 32.3094ZM12.5581 33.3749V36.6673H11.8756V33.3749H12.5581Z" fill="white"/>
<path d="M14.3032 36.7511C13.9919 36.7511 13.7405 36.6673 13.5489 36.4997C13.3614 36.3321 13.2676 36.1066 13.2676 35.8232C13.2676 35.4641 13.4053 35.1907 13.6806 35.0032C13.96 34.8156 14.3571 34.7218 14.8719 34.7218H15.2789V34.5303C15.2789 34.3347 15.2191 34.1791 15.0993 34.0633C14.9836 33.9476 14.828 33.8897 14.6324 33.8897C14.377 33.8897 14.1236 34.0075 13.8722 34.2429L13.4472 33.8419C13.7944 33.4747 14.2074 33.2911 14.6863 33.2911C15.0734 33.2911 15.3827 33.3989 15.6141 33.6144C15.8456 33.8299 15.9613 34.1172 15.9613 34.4764V36.6673H15.2789V36.2483H15.243C15.1672 36.3999 15.0415 36.5216 14.8659 36.6134C14.6903 36.7052 14.5027 36.7511 14.3032 36.7511ZM14.4708 36.1585C14.5905 36.1585 14.7122 36.1345 14.8359 36.0866C14.9597 36.0348 15.0634 35.9569 15.1472 35.8532C15.235 35.7494 15.2789 35.6177 15.2789 35.4581V35.3144H14.9736C14.6344 35.3144 14.381 35.3523 14.2134 35.4282C14.0498 35.5 13.968 35.6157 13.968 35.7754C13.968 35.8911 14.0119 35.9849 14.0997 36.0567C14.1914 36.1245 14.3152 36.1585 14.4708 36.1585Z" fill="white"/>
<path d="M18.1266 36.7511C17.8153 36.7511 17.5419 36.6812 17.3065 36.5416C17.075 36.4019 16.8954 36.2024 16.7677 35.943C16.644 35.6796 16.5821 35.3723 16.5821 35.0211C16.5821 34.6699 16.644 34.3646 16.7677 34.1052C16.8954 33.8419 17.075 33.6403 17.3065 33.5006C17.5419 33.361 17.8153 33.2911 18.1266 33.2911C18.4378 33.2911 18.7092 33.361 18.9407 33.5006C19.1761 33.6403 19.3557 33.8419 19.4794 34.1052C19.6071 34.3646 19.671 34.6699 19.671 35.0211C19.671 35.3723 19.6071 35.6796 19.4794 35.943C19.3557 36.2024 19.1761 36.4019 18.9407 36.5416C18.7092 36.6812 18.4378 36.7511 18.1266 36.7511ZM18.1266 36.1106C18.386 36.1106 18.5915 36.0128 18.7431 35.8173C18.8948 35.6217 18.9706 35.3563 18.9706 35.0211C18.9706 34.6859 18.8948 34.4205 18.7431 34.225C18.5915 34.0294 18.386 33.9316 18.1266 33.9316C17.8672 33.9316 17.6616 34.0294 17.51 34.225C17.3583 34.4205 17.2825 34.6859 17.2825 35.0211C17.2825 35.3603 17.3583 35.6277 17.51 35.8232C17.6616 36.0148 17.8672 36.1106 18.1266 36.1106Z" fill="white"/>
<path d="M20.3154 36.6673V33.3749H20.9978V33.8H21.0337C21.1375 33.6403 21.2652 33.5166 21.4168 33.4288C21.5725 33.337 21.7401 33.2911 21.9197 33.2911C22.1192 33.2911 22.2928 33.343 22.4405 33.4468C22.5921 33.5465 22.7078 33.6942 22.7876 33.8897H22.8236C22.9393 33.6982 23.0869 33.5505 23.2665 33.4468C23.4461 33.343 23.6496 33.2911 23.8771 33.2911C24.2163 33.2911 24.4797 33.4009 24.6673 33.6204C24.8548 33.8399 24.9486 34.1491 24.9486 34.5482V36.6673H24.2662V34.6679C24.2662 34.4405 24.2123 34.2589 24.1046 34.1232C23.9968 33.9875 23.8552 33.9197 23.6796 33.9197C23.4641 33.9197 23.2925 33.9935 23.1648 34.1412C23.0371 34.2848 22.9732 34.4824 22.9732 34.7338V36.6673H22.2908V34.6679C22.2908 34.4405 22.2369 34.2589 22.1292 34.1232C22.0214 33.9875 21.8798 33.9197 21.7042 33.9197C21.4887 33.9197 21.3171 33.9935 21.1894 34.1412C21.0617 34.2848 20.9978 34.4824 20.9978 34.7338V36.6673H20.3154Z" fill="white"/>
<path d="M26.5666 32.3094C26.5666 32.4411 26.5267 32.5469 26.4469 32.6267C26.3711 32.7025 26.2653 32.7404 26.1296 32.7404C26.0019 32.7404 25.8982 32.7025 25.8184 32.6267C25.7425 32.5469 25.7046 32.4411 25.7046 32.3094C25.7046 32.1737 25.7425 32.068 25.8184 31.9922C25.8982 31.9123 26.0019 31.8724 26.1296 31.8724C26.2653 31.8724 26.3711 31.9123 26.4469 31.9922C26.5267 32.068 26.5666 32.1737 26.5666 32.3094ZM26.4768 33.3749V36.6673H25.7944V33.3749H26.4768Z" fill="white"/>
<path d="M27.342 36.6673V35.8651H28.1441V36.6673H27.342Z" fill="white"/>
<path d="M30.3864 36.7511C30.0632 36.7511 29.7798 36.6812 29.5364 36.5416C29.2969 36.3979 29.1114 36.1964 28.9797 35.937C28.852 35.6736 28.7881 35.3683 28.7881 35.0211C28.7881 34.6739 28.852 34.3706 28.9797 34.1112C29.1114 33.8478 29.2969 33.6463 29.5364 33.5066C29.7798 33.363 30.0632 33.2911 30.3864 33.2911C30.6418 33.2911 30.8832 33.363 31.1107 33.5066C31.3422 33.6463 31.5238 33.8359 31.6554 34.0753L31.0748 34.3926C30.995 34.2489 30.8892 34.1372 30.7575 34.0574C30.6298 33.9735 30.4902 33.9316 30.3385 33.9316C30.0831 33.9316 29.8776 34.0314 29.7219 34.2309C29.5663 34.4305 29.4885 34.6939 29.4885 35.0211C29.4885 35.3483 29.5643 35.6117 29.716 35.8113C29.8716 36.0108 30.0771 36.1106 30.3325 36.1106C30.4842 36.1106 30.6258 36.0707 30.7575 35.9909C30.8892 35.911 30.995 35.7993 31.0748 35.6556L31.6554 35.9729C31.5238 36.2123 31.3442 36.4019 31.1167 36.5416C30.8892 36.6812 30.6458 36.7511 30.3864 36.7511Z" fill="white"/>
<path d="M32.27 36.6673V33.3749H32.9524V33.8059H32.9883C33.0881 33.6503 33.2258 33.5266 33.4014 33.4348C33.577 33.339 33.7625 33.2911 33.9581 33.2911C34.3093 33.2911 34.5826 33.4009 34.7782 33.6204C34.9777 33.8399 35.0775 34.1511 35.0775 34.5542V36.6673H34.3951V34.6799C34.3951 34.4524 34.3312 34.2709 34.2035 34.1352C34.0798 33.9955 33.9222 33.9257 33.7306 33.9257C33.4991 33.9257 33.3116 34.0015 33.1679 34.1531C33.0242 34.3008 32.9524 34.4983 32.9524 34.7458V36.6673H32.27Z" fill="white"/>
</svg>
